<svg width="39" height="45" viewBox="0 0 39 45" fill="none" xmlns="http://www.w3.org/2000/svg">
<mask id="path-1-inside-1_24_77" fill="white">
<path d="M0 5C0 2.23858 2.23858 0 5 0H25.7849C28.5463 0 30.7849 2.23858 30.7849 5V39.4943C30.7849 42.2557 28.5463 44.4943 25.7849 44.4943H5C2.23858 44.4943 0 42.2557 0 39.4943V5Z"/>
</mask>
<path d="M-1 5C-1 1.68629 1.68629 -1 5 -1H24.7849C28.0986 -1 30.7849 1.68629 30.7849 5C30.7849 2.79086 28.5463 1 25.7849 1H5C2.79086 1 1 2.79086 1 5H-1ZM30.7849 39.4943C30.7849 42.808 28.0986 45.4943 24.7849 45.4943H5C1.68629 45.4943 -1 42.808 -1 39.4943H1C1 41.7034 2.79086 43.4943 5 43.4943H25.7849C28.5463 43.4943 30.7849 41.7034 30.7849 39.4943ZM5 45.4943C1.68629 45.4943 -1 42.808 -1 39.4943V5C-1 1.68629 1.68629 -1 5 -1V1C2.79086 1 1 2.79086 1 5V39.4943C1 41.7034 2.79086 43.4943 5 43.4943V45.4943ZM30.7849 0V44.4943V0Z" fill="black" mask="url(#path-1-inside-1_24_77)"/>
<path d="M38.7071 23.2042C39.0976 22.8137 39.0976 22.1805 38.7071 21.79L32.3431 15.426C31.9526 15.0355 31.3194 15.0355 30.9289 15.426C30.5384 15.8165 30.5384 16.4497 30.9289 16.8402L36.5857 22.4971L30.9289 28.1539C30.5384 28.5444 30.5384 29.1776 30.9289 29.5681C31.3194 29.9587 31.9526 29.9587 32.3431 29.5681L38.7071 23.2042ZM19.7214 22.4971V23.4971L37.9999 23.4971V22.4971V21.4971L19.7214 21.4971V22.4971Z" fill="black"/>
</svg>
