<svg width="38" height="51" viewBox="0 0 38 51" fill="none" xmlns="http://www.w3.org/2000/svg">
<path d="M19 0.5C24.8526 0.5 29.4998 4.73328 29.5 9.8418C29.5 14.9505 24.8527 19.1846 19 19.1846C13.1473 19.1846 8.5 14.9505 8.5 9.8418C8.50019 4.73328 13.1474 0.5 19 0.5Z" stroke="black"/>
<mask id="path-2-inside-1_77_17" fill="white">
<path d="M38 35.3422C38 33.2859 37.5086 31.2498 36.5537 29.3501C35.5989 27.4504 34.1993 25.7243 32.435 24.2704C30.6707 22.8164 28.5762 21.663 26.271 20.8762C23.9658 20.0893 21.4951 19.6843 19 19.6843C16.5049 19.6843 14.0342 20.0893 11.729 20.8762C9.42383 21.663 7.32928 22.8164 5.56497 24.2704C3.80066 25.7243 2.40113 27.4504 1.44629 29.3501C0.491449 31.2498 -2.1813e-07 33.2859 0 35.3422L19 35.3422H38Z"/>
</mask>
<path d="M38 35.3422C38 33.2859 37.5086 31.2498 36.5537 29.3501C35.5989 27.4504 34.1993 25.7243 32.435 24.2704C30.6707 22.8164 28.5762 21.663 26.271 20.8762C23.9658 20.0893 21.4951 19.6843 19 19.6843C16.5049 19.6843 14.0342 20.0893 11.729 20.8762C9.42383 21.663 7.32928 22.8164 5.56497 24.2704C3.80066 25.7243 2.40113 27.4504 1.44629 29.3501C0.491449 31.2498 -2.1813e-07 33.2859 0 35.3422L19 35.3422H38Z" stroke="black" stroke-width="2" mask="url(#path-2-inside-1_77_17)"/>
</svg>
